# xmcd
#
# Track frame offsets:
#	150
#	14916
#	28516
#	41874
#	56174
#	71544
#	85335
#	99393
#	113063
#	127170
#	141738
#	154621
#	168142
#	182937
#	195765
#	210428
#	222952
#	235312
#	249384
#	262220
#
# Disc length: 3664
#
# Revision: 1
# Processed by: cddbd v1.5.1PL0 Copyright (c) Steve Scherf et al.
# Submitted via: CDex 1.51
# Normalized: r0:DSETVAR1,TDELIM( - ),TSWAP
#
DISCID=2a0e4e14
DTITLE=Various Artist - Le Petit Dictionnaire du Jazz CD 2
DYEAR=2004
DGENRE=Jazz
TTITLE0=Ella Fitzgerald - Oh, Lady Be Good
TTITLE1=Erroll Garner - Erroll's Bounce
TTITLE2=Stan Getz - Long Island Sound
TTITLE3=Dizzy Gillespie - Oop-Pop-A-Da
TTITLE4=Benny Goodman - Good Enough To Keep
TTITLE5=Dexter Gordon - Long Tall Dexter
TTITLE6=Lionel Hampton - Shufflin' At The Hollywood
TTITLE7=Coleman Hawkins - Body and Soul
TTITLE8=fletcher hendenrson - Blue lou
TTITLE9=Woody Herman - early Autumn
TTITLE10=Earl Hines - The Earl
TTITLE11=Johnny Hodges - Dooji Wooji
TTITLE12=Billie Holiday - Lover Come Back To me
TTITLE13=Milt Jackson - In A Beautiful Mood
TTITLE14=Illinois Jacquet - Flying Home
TTITLE15=james P. Johnson - Carolina Shout
TTITLE16=J.J Johnson - Mad The Bop
TTITLE17=Lonnie Johnson  Eddie Lang - A handful Of Riffs
TTITLE18=Pete Johnson and Big Joe Turner - Roll'Em Pete
TTITLE19=Louis Jordan - Let The Good Times Roll
EXTD=YEAR: 2004
EXTT0=
EXTT1=
EXTT2=
EXTT3=
EXTT4=
EXTT5=
EXTT6=
EXTT7=
EXTT8=
EXTT9=
EXTT10=
EXTT11=
EXTT12=
EXTT13=
EXTT14=
EXTT15=
EXTT16=
EXTT17=
EXTT18=
EXTT19=
PLAYORDER=
